# xmcd
#
# Track frame offsets:
#	150
#	12907
#	23067
#	35682
#	50385
#	71562
#	84560
#	98705
#	119712
#	141285
#	164125
#	184970
#	204347
#	220117
#	230327
#	252917
#	264640
#	291275
#	310977
#	324565
#	334155
#
# Disc length: 4609 seconds
#
# Revision: 1
# Processed by: cddbd v1.5.1PL0 Copyright (c) Steve Scherf et al.
# Submitted via: CDex 1.50Beta5
#
DISCID=3f11ff15
DTITLE=Various Artist - Le Cinema 〜the most relaxing〜 feel presents
DYEAR=2003
DGENRE=Soundtrack
TTITLE0=La vita e bella/Life is beautiful(La vita e bella)
TTITLE1=Infanzia e maturita/Nuovo cinema paradiso
TTITLE2=Sacrifice/Piano
TTITLE3=Cavatina/Deer hunter
TTITLE4=Merry Christmas Mr.Lawrence -Theme-(Live)/Merry Christmas Mr.Lawrence
TTITLE5=Mission/Mission
TTITLE6=Etude/Killing fields
TTITLE7=Calling you/Bagdad cafe
TTITLE8=Big blue overture/Le grand bleu
TTITLE9=Schindler's list -Theme-/Schindler's list
TTITLE10=End credits/Remains of the day
TTITLE11=Sheltering sky theme(Piano version)/Sheltering sky
TTITLE12=Alfama/Lisbon story
TTITLE13=La valse d'amelie/Amelie from montmartre
TTITLE14=My Heart will go on/Titanic
TTITLE15=Malena/Malena
TTITLE16=Last emperor -Theme-/Last emperor
TTITLE17=Nocturne No.20 in c sharp minor,Op.Posth(Chopin)/Pianist
TTITLE18=Lili marleen/Marlene dietrich her own song
TTITLE19=Bolero(Ravel)/Les uns et les autres
TTITLE20=Schottische fantasei,Op46-3rd movement(Bruch)/Together
EXTD=
EXTT0=
EXTT1=
EXTT2=
EXTT3=
EXTT4=
EXTT5=
EXTT6=
EXTT7=
EXTT8=
EXTT9=
EXTT10=
EXTT11=
EXTT12=
EXTT13=
EXTT14=
EXTT15=
EXTT16=
EXTT17=
EXTT18=
EXTT19=
EXTT20=
PLAYORDER=
